<?xml version="1.0" encoding="UTF-8" standalone="no"?>
<svg
   width="485.12183pt"
   height="474.33682pt"
   viewBox="0 0 485.12183 474.33682"
   version="1.1"
   id="svg167"
   sodipodi:docname="stepper1.svg"
   inkscape:version="1.1.1 (3bf5ae0d25, 2021-09-20)"
   xmlns:inkscape="http://www.inkscape.org/namespaces/inkscape"
   xmlns:sodipodi="http://sodipodi.sourceforge.net/DTD/sodipodi-0.dtd"
   xmlns="http://www.w3.org/2000/svg"
   xmlns:svg="http://www.w3.org/2000/svg">
  <defs
     id="defs171" />
  <sodipodi:namedview
     id="namedview169"
     pagecolor="#505050"
     bordercolor="#ffffff"
     borderopacity="1"
     inkscape:pageshadow="0"
     inkscape:pageopacity="0"
     inkscape:pagecheckerboard="1"
     inkscape:document-units="pt"
     showgrid="false"
     width="619pt"
     fit-margin-top="0"
     fit-margin-left="0"
     fit-margin-right="0"
     fit-margin-bottom="0"
     inkscape:zoom="0.86975806"
     inkscape:cx="206.37923"
     inkscape:cy="297.78396"
     inkscape:window-width="3440"
     inkscape:window-height="1420"
     inkscape:window-x="-4"
     inkscape:window-y="-4"
     inkscape:window-maximized="1"
     inkscape:current-layer="svg167" />
  <g
     id="#b2b2aefd"
     transform="translate(-77.79346,-85.95)">
    <path
       fill="#b2b2ae"
       opacity="1"
       d="m 296.61,105.36 c 17.41,-8.88 37.35,-14.76 56.43,-19.41 54.35,25.06 108.13,51.64 162.72,76.26 5.76,2.39 7.88,8.06 10.83,13 1.22,2.17 2.45,4.34 3.67,6.52 -8.24,-3.73 -17.75,-2.02 -25.15,2.26 -8.25,-6.71 -8.88,7.92 -17.26,6.16 -3.46,-2.95 -4.91,1.27 -6.33,3.86 0.16,-5.13 -11.66,-10.35 -11.75,-4.98 -2.69,-3.62 -5.27,-7.64 -9.59,-9.45 -38.62,-19.74 -77.8,-38.34 -117.17,-56.52 -15.54,-5.59 -29.45,-17.96 -46.4,-17.7 z"
       id="path2" />
  </g>
  <g
     id="#1a1a18ff"
     transform="translate(-77.79346,-85.95)">
    <path
       fill="#1a1a18"
       opacity="1"
       d="m 248.64,124.63 c 15.76,-6.83 33.42,-10.25 47.97,-19.27 16.95,-0.26 30.86,12.11 46.4,17.7 39.37,18.18 78.55,36.78 117.17,56.52 -39.28,13.28 -76.69,31.47 -116.08,44.48 -3.99,1.52 -7.88,3.5 -10.48,6.99 -51.97,-27.5 -104.96,-53.19 -156.98,-80.64 24.44,-7.22 47.93,-17.42 72,-25.78 z"
       id="path5" />
  </g>
  <g
     id="#c4c2b8ff"
     transform="translate(-77.79346,-85.95)">
    <path
       fill="#c4c2b8"
       opacity="1"
       d="m 132.93,163.97 c 14.51,-4.3 28.77,-15.76 43.71,-13.56 52.02,27.45 105.01,53.14 156.98,80.64 0.97,0.88 1.95,1.77 2.85,2.73 -11.96,4.46 -23.83,9.2 -35.63,14.05 -8.77,5.9 -14.48,-4.85 -22.73,-5.95 -29.96,-17.19 -61.74,-31.2 -91.63,-48.39 -10.92,-9.18 -24.96,-10.08 -36.1,-18.89 -4.54,-3.66 -18.16,-4.27 -17.45,-10.63 z"
       id="path8" />
  </g>
  <g
     id="#00000023"
     transform="translate(-77.79346,-85.95)">
    <path
       fill="#000000"
       opacity="0.14"
       d="m 515.76,162.21 c 20.58,2.82 32.5,22.21 40.49,39.48 11.39,23.83 4.43,51.05 5.76,76.31 -1.24,49.48 -1.45,99.01 -3.5,148.44 -0.13,19.46 -15.82,33.56 -32.49,40.6 -68.33,30.8 -136.41,62.4 -205.43,91.52 -18.7,6.67 -33.91,-7.51 -48.6,-16.54 -32.69,-18.61 -65.33,-37.33 -98.01,-55.96 -17.45,-10.47 -38.17,-18.98 -47.86,-38.14 -7.2,-9.67 -20.76,-1.5 -30.23,-6.86 -13.73,-6.05 -22.67,-26.22 -15.64,-39.51 1.71,3.89 3.64,7.67 5.63,11.43 -0.36,10 6.54,20.64 16.78,22.37 9.36,1.56 21.81,-2.42 27.7,7.33 12.41,21.39 36.08,30.58 56.26,42.73 30.01,17.31 60.31,34.13 90.14,51.76 12.42,7.35 25.6,19.67 41.25,14.84 68.97,-28.64 136.64,-60.75 204.99,-90.97 14.25,-6.31 27.7,-17.94 28.4,-34.7 2.22,-66.62 3.5,-133.3 4.23,-199.92 -3.01,-18.8 -11.07,-42.16 -29.04,-51.21 -2.95,-4.94 -5.07,-10.61 -10.83,-13 z"
       id="path11" />
  </g>
  <g
     id="#716e65ff"
     transform="translate(-77.79346,-85.95)">
    <path
       fill="#716e65"
       opacity="1"
       d="m 131.16,164.96 c 0.45,-0.25 1.33,-0.74 1.77,-0.99 -0.71,6.36 12.91,6.97 17.45,10.63 11.14,8.81 25.18,9.71 36.1,18.89 29.89,17.19 61.67,31.2 91.63,48.39 8.25,1.1 13.96,11.85 22.73,5.95 -0.38,2.71 -0.76,5.43 -0.92,8.17 -2.14,-7.93 -12.18,-4.31 -6.93,2.77 -1.09,-0.09 -2.19,-0.12 -3.28,-0.13 C 284,249.9 273.17,246.79 263.64,244.38 251,232.02 230.5,229 218.18,216.75 c -1.09,0.26 -2.15,0.61 -3.24,0.84 -28.41,-16.32 -59.21,-29.06 -87.04,-46.34 1.37,-1.94 2.85,-3.89 3.26,-6.29 z"
       id="path14" />
  </g>
  <g
     id="#41413ec1"
     transform="translate(-77.79346,-85.95)">
    <path
       fill="#41413e"
       opacity="0.76"
       d="m 111.22,183.3 c 7.45,-5.22 12.67,-12.97 19.94,-18.34 -0.41,2.4 -1.89,4.35 -3.26,6.29 -1.62,2.56 -3.64,4.82 -5.85,6.89 -3.69,3.95 -8.32,7.61 -9.88,13.03 -0.81,20.87 0.15,41.74 1.12,62.58 -0.59,16.74 -0.11,33.5 -0.32,50.25 -1.31,-38.37 -1.75,-80.84 -1.75,-120.7 z"
       id="path17" />
  </g>
  <g
     id="#575751ff"
     transform="translate(-77.79346,-85.95)">
    <path
       fill="#575751"
       opacity="1"
       d="m 122.05,178.14 c 2.21,-2.07 4.23,-4.33 5.85,-6.89 27.83,17.28 58.63,30.02 87.04,46.34 1.09,-0.23 2.15,-0.58 3.24,-0.84 12.32,12.25 32.82,15.27 45.46,27.63 9.53,2.41 20.36,5.52 26.07,14.26 4.33,11.65 12.2,21.45 16.55,33.04 2.51,3.84 4.58,-1.43 3.02,-3.91 1.94,4.5 7.24,7.77 5.8,0.2 l 0.85,0.17 c 0.07,0.41 0.2,1.23 0.27,1.63 -0.48,28.9 2.07,56.03 -1.38,85.41 3.93,45.99 -1.01,92.37 1.26,138.63 -2.3,10.83 13.62,1.9 17.87,-0.87 7.7,-3.27 15.97,-5.44 23.15,-9.91 -1.4,2.35 -3.64,4.16 -4.42,6.87 -17.14,8.56 -34.39,18.12 -52.95,23.05 3.09,-4.72 10.42,-6.53 10.45,-12.93 -5.22,0.98 -10.59,2.67 -15.13,-1.08 4.66,-3.36 10.17,-7.62 8.98,-14.16 -0.03,-13.04 0.12,-26.07 -0.25,-39.1 0.69,-51.21 -0.21,-102.48 0.28,-153.66 1.19,-4.87 0.27,-9.82 -0.75,-14.63 -0.3,-2.54 -0.09,-5.14 -1.15,-7.48 -6.17,-12.95 -11.1,-28.45 -25.3,-34.77 -16.82,-8.03 -32.68,-17.82 -49.05,-26.68 -3.38,-2.03 -6.93,-3.74 -10.56,-5.26 -27.1,-15.68 -55.3,-29.43 -82.61,-44.78 -3.82,-2.88 -8.56,-2.42 -12.59,-0.28 z"
       id="path20" />
  </g>
  <g
     id="#00000050"
     transform="translate(-77.79346,-85.95)">
    <path
       fill="#000000"
       opacity="0.31"
       d="m 526.59,175.21 c 17.97,9.05 26.03,32.41 29.04,51.21 -0.73,66.62 -2.01,133.3 -4.23,199.92 -0.7,16.76 -14.15,28.39 -28.4,34.7 -68.35,30.22 -136.02,62.33 -204.99,90.97 -15.65,4.83 -28.83,-7.49 -41.25,-14.84 -29.83,-17.63 -60.13,-34.45 -90.14,-51.76 -20.18,-12.15 -43.85,-21.34 -56.26,-42.73 -5.89,-9.75 -18.34,-5.77 -27.7,-7.33 -10.24,-1.73 -17.14,-12.37 -16.78,-22.37 1.35,1.02 2.72,2.02 4.13,2.97 8.35,14.28 24.04,11.67 38,12.06 1.98,2.99 3.99,5.97 5.95,8.98 10.16,23.05 35.13,31.69 55.02,44.08 30.3,17.37 60.74,34.49 90.91,52.08 12.1,7.45 25.79,19.52 40.99,12.7 54.19,-23.43 107.79,-48.24 161.78,-72.16 17.47,-8.86 37.05,-14.28 52.6,-26.45 13.42,-10.06 11.44,-28.59 11.84,-43.26 1.18,-45.99 2.47,-91.97 2.86,-137.98 -0.5,-22.51 6.26,-49.64 -10.87,-67.99 -1.01,-1.39 -1.95,-2.83 -2.86,-4.28 -2.15,-3.92 -3.83,-8.08 -5.97,-12 -1.22,-2.18 -2.45,-4.35 -3.67,-6.52 z"
       id="path23" />
  </g>
  <g
     id="#9fa098ff"
     transform="translate(-77.79346,-85.95)">
    <path
       fill="#9fa098"
       opacity="1"
       d="m 122.05,178.14 c 4.03,-2.14 8.77,-2.6 12.59,0.28 27.31,15.35 55.51,29.1 82.61,44.78 -5.48,4.75 -9.91,-3.07 -14.64,-5.42 -12,2.47 -20.3,-10.22 -32.1,-9.46 -17.84,-3.8 -25.44,14.35 -36.57,23.53 -2.69,8.41 -9.22,14.11 -14.06,21.03 -2.34,8.74 -0.1,19.06 -5.68,26.55 -0.22,-8.57 -0.08,-17.15 -0.91,-25.68 -0.97,-20.84 -1.93,-41.71 -1.12,-62.58 1.56,-5.42 6.19,-9.08 9.88,-13.03 m 18.2,40.05 c 4.17,-5.92 1.69,-15.4 -3.18,-20.31 -0.29,-2.54 -2.66,-4.15 -4.71,-5.3 -20.14,-3.18 -4.64,37.97 7.89,25.61 z"
       id="path26" />
  </g>
  <g
     id="#c9c9c8ff"
     transform="translate(-77.79346,-85.95)">
    <path
       fill="#c9c9c8"
       opacity="1"
       d="m 505.11,183.99 c 7.4,-4.28 16.91,-5.99 25.15,-2.26 2.14,3.92 3.82,8.08 5.97,12 -5.1,-3.61 -11.04,4.83 -15.35,-1.78 -2.48,6.26 -9.23,2.59 -12.09,8.17 -3.41,-6.85 -12.22,-2.83 -14.72,3.04 -2.27,4.62 -8.62,4.58 -11.45,8.82 -3.78,-7.92 -8.06,-15.6 -12.85,-22.95 0.09,-5.37 11.91,-0.15 11.75,4.98 1.42,-2.59 2.87,-6.81 6.33,-3.86 8.38,1.76 9.01,-12.87 17.26,-6.16 z"
       id="path29" />
  </g>
  <g
     id="#090909ff"
     transform="translate(-77.79346,-85.95)">
    <path
       fill="#090909"
       opacity="1"
       d="m 344.1,224.06 c 39.39,-13.01 76.8,-31.2 116.08,-44.48 4.32,1.81 6.9,5.83 9.59,9.45 4.79,7.35 9.07,15.03 12.85,22.95 1.86,4.07 3.86,8.09 5.51,12.25 -0.09,4.3 -0.19,8.62 -0.19,12.93 -3.72,-9.04 -13.39,1.06 -19.81,1.99 -31.73,12.96 -63.74,25.21 -95.28,38.64 -4.92,2.19 -11.56,3.18 -12.83,9.41 -0.05,-0.86 -0.15,-2.58 -0.2,-3.43 -0.06,-3.27 0.84,-6.74 -0.59,-9.81 -2.73,-5.95 -5.93,-11.65 -9.05,-17.39 -3.33,-7.39 -7.47,-14.4 -12.15,-21 -0.48,-0.63 -1,-1.23 -1.56,-1.79 -0.9,-0.96 -1.88,-1.85 -2.85,-2.73 2.6,-3.49 6.49,-5.47 10.48,-6.99 z"
       id="path32" />
  </g>
  <g
     id="#464640ff"
     transform="translate(-77.79346,-85.95)">
    <path
       fill="#464640"
       opacity="1"
       d="m 140.25,218.19 c -12.53,12.36 -28.03,-28.79 -7.89,-25.61 2.05,1.15 4.42,2.76 4.71,5.3 -6.3,-3.26 -3.65,6.81 -3.34,10.46 -3.88,-2.51 1.26,-11.39 -4.72,-10.34 -1.78,7.56 2.18,14.08 7.18,19.23 -0.54,3.74 1.89,2.3 4.06,0.96 z"
       id="path35" />
  </g>
  <g
     id="#e5e5e5ff"
     transform="translate(-77.79346,-85.95)">
    <path
       fill="#e5e5e5"
       opacity="1"
       d="m 508.79,200.12 c 2.86,-5.58 9.61,-1.91 12.09,-8.17 4.31,6.61 10.25,-1.83 15.35,1.78 0.91,1.45 1.85,2.89 2.86,4.28 0.09,0.43 0.26,1.3 0.35,1.73 -0.33,2.29 -0.31,5.14 -3.44,5.32 -16.03,6.21 -31.76,13.19 -47.87,19.17 -1.65,-4.16 -3.65,-8.18 -5.51,-12.25 2.83,-4.24 9.18,-4.2 11.45,-8.82 2.5,-5.87 11.31,-9.89 14.72,-3.04 z"
       id="path38" />
  </g>
  <g
     id="#151513ff"
     transform="translate(-77.79346,-85.95)">
    <path
       fill="#151513"
       opacity="1"
       d="m 133.73,208.34 c -0.31,-3.65 -2.96,-13.72 3.34,-10.46 4.87,4.91 7.35,14.39 3.18,20.31 -2.17,1.34 -4.6,2.78 -4.06,-0.96 -5,-5.15 -8.96,-11.67 -7.18,-19.23 5.98,-1.05 0.84,7.83 4.72,10.34 z"
       id="path41" />
  </g>
  <g
     id="#0000007c"
     transform="translate(-77.79346,-85.95)">
    <path
       fill="#000000"
       opacity="0.49"
       d="m 539.09,198.01 c 17.13,18.35 10.37,45.48 10.87,67.99 -0.39,46.01 -1.68,91.99 -2.86,137.98 -0.4,14.67 1.58,33.2 -11.84,43.26 -15.55,12.17 -35.13,17.59 -52.6,26.45 -53.99,23.92 -107.59,48.73 -161.78,72.16 -15.2,6.82 -28.89,-5.25 -40.99,-12.7 -30.17,-17.59 -60.61,-34.71 -90.91,-52.08 -19.89,-12.39 -44.86,-21.03 -55.02,-44.08 0.95,0.72 1.92,1.44 2.92,2.12 3.32,2.3 6.79,4.39 10.1,6.72 9.87,16.37 31.37,21.1 46.27,31.94 30.76,17.56 61.42,35.23 92.06,52.98 9.58,5.65 20.18,15.74 32.26,10.82 68.73,-29.2 136.6,-60.67 204.77,-91.25 9.95,-4.96 18.46,-14.24 19.22,-25.74 1.83,-48.19 2.4,-96.38 3.43,-144.58 -1.68,-23.65 6.21,-49.03 -4.71,-71.3 -0.27,-3.01 -0.24,-6.01 -0.84,-8.96 -0.09,-0.43 -0.26,-1.3 -0.35,-1.73 z"
       id="path44" />
  </g>
  <g
     id="#80807dff"
     transform="translate(-77.79346,-85.95)">
    <path
       fill="#80807d"
       opacity="1"
       d="m 539.44,199.74 c 0.6,2.95 0.57,5.95 0.84,8.96 -1.87,71.38 -2.14,142.92 -5.25,214.18 -14.49,16.42 -36.48,21.22 -54.99,31.36 -0.5,-0.26 -1.49,-0.8 -1.98,-1.07 3.17,-2.94 7.4,-5.67 6.39,-10.81 1.67,-68.38 3.08,-136.79 3.49,-205.2 0,-4.31 0.1,-8.63 0.19,-12.93 16.11,-5.98 31.84,-12.96 47.87,-19.17 3.13,-0.18 3.11,-3.03 3.44,-5.32 z"
       id="path47" />
  </g>
  <g
     id="#8e8f88ff"
     transform="translate(-77.79346,-85.95)">
    <path
       fill="#8e8f88"
       opacity="1"
       d="m 133.94,231.85 c 11.13,-9.18 18.73,-27.33 36.57,-23.53 11.8,-0.76 20.1,11.93 32.1,9.46 4.73,2.35 9.16,10.17 14.64,5.42 3.63,1.52 7.18,3.23 10.56,5.26 -0.83,3.26 2.77,5.02 4.64,7.03 12.5,10.55 17.86,26.52 26.9,39.71 -1.76,8.7 6.55,14.83 5.33,23.38 1.47,8.87 12,2.41 17.59,6.06 4.83,1.95 1.83,-3.32 -0.26,-4.76 2.93,-4.51 8.98,-1.99 6.26,3.26 5.47,0.02 6.54,-7.08 7.12,-11.38 1.14,6.95 0.61,0.06 4.98,2.72 2.77,1.74 1.31,-3.05 1.79,-4.57 1.06,2.34 0.85,4.94 1.15,7.48 -7.63,12.22 -24.21,9.68 -36.38,13.66 -4.26,1.71 -7.94,-2.83 -9.82,-6.14 -3.67,-26.32 -34.62,-29.82 -53.11,-41.94 -5.76,-5.18 -12.98,2.38 -19.51,0.63 -7.43,-3.28 -13.3,4.21 -14.19,10.8 -2.64,2.6 -5.67,4.75 -8.56,7.06 -17.5,18.9 -17.39,48.68 -12.76,72.99 -11.8,4.06 -23.36,8.84 -34.82,13.74 -0.65,-21.4 0.75,-42.87 -1.19,-64.19 0.21,-16.75 -0.27,-33.51 0.32,-50.25 0.83,8.53 0.69,17.11 0.91,25.68 5.58,-7.49 3.34,-17.81 5.68,-26.55 4.84,-6.92 11.37,-12.62 14.06,-21.03 z"
       id="path50" />
  </g>
  <g
     id="#020202a8"
     transform="translate(-77.79346,-85.95)">
    <path
       fill="#020202"
       opacity="0.66"
       d="m 540.28,208.7 c 10.92,22.27 3.03,47.65 4.71,71.3 -1.03,48.2 -1.6,96.39 -3.43,144.58 -0.76,11.5 -9.27,20.78 -19.22,25.74 -68.17,30.58 -136.04,62.05 -204.77,91.25 -12.08,4.92 -22.68,-5.17 -32.26,-10.82 -30.64,-17.75 -61.3,-35.42 -92.06,-52.98 -14.9,-10.84 -36.4,-15.57 -46.27,-31.94 6.5,2.98 12.6,6.72 18.78,10.3 23.26,13.46 46.72,26.54 70.07,39.84 19.58,12.85 41.12,23.55 59.96,37.28 22.31,9.41 41.96,-7.85 62.21,-15.2 52.01,-23.34 104.09,-46.52 156.02,-70.01 10.15,-4.44 22.95,-11.96 21.01,-25.16 3.11,-71.26 3.38,-142.8 5.25,-214.18 z"
       id="path53" />
  </g>
  <g
     id="#a4a4a2ff"
     transform="translate(-77.79346,-85.95)">
    <path
       fill="#a4a4a2"
       opacity="1"
       d="m 232.45,235.49 c -1.87,-2.01 -5.47,-3.77 -4.64,-7.03 16.37,8.86 32.23,18.65 49.05,26.68 14.2,6.32 19.13,21.82 25.3,34.77 -0.48,1.52 0.98,6.31 -1.79,4.57 -4.37,-2.66 -3.84,4.23 -4.98,-2.72 -1.92,-8.04 -6.86,-20.37 -17.02,-18.51 -7.78,6.75 -3.13,20.4 3.64,26.63 2.09,1.44 5.09,6.71 0.26,4.76 -5.59,-3.65 -16.12,2.81 -17.59,-6.06 1.22,-8.55 -7.09,-14.68 -5.33,-23.38 -9.04,-13.19 -14.4,-29.16 -26.9,-39.71 z"
       id="path56" />
  </g>
  <g
     id="#020202ff"
     transform="translate(-77.79346,-85.95)">
    <path
       fill="#020202"
       opacity="1"
       d="m 468.13,239.15 c 6.42,-0.93 16.09,-11.03 19.81,-1.99 -0.41,68.41 -1.82,136.82 -3.49,205.2 1.01,5.14 -3.22,7.87 -6.39,10.81 -2.88,-2.14 -6.41,-2.91 -9.37,-0.45 -27.9,15.16 -57.82,26.05 -86.53,39.5 -7.79,3.41 -15.52,7.43 -23.95,8.97 -0.83,-42.37 1.65,-84.7 0.82,-127.09 0.05,-4.63 0.01,-9.25 0.18,-13.87 1.77,-24.29 0.31,-48.7 0.81,-73.03 1.27,-6.23 7.91,-7.22 12.83,-9.41 31.54,-13.43 63.55,-25.68 95.28,-38.64 z"
       id="path59" />
  </g>
  <g
     id="#9d9d99ff"
     transform="translate(-77.79346,-85.95)">
    <path
       fill="#9d9d99"
       opacity="1"
       d="m 336.47,233.78 c 0.56,0.56 1.08,1.16 1.56,1.79 -2.72,0.97 -8.21,6.39 -2.04,4.66 5.94,3.29 -4.03,9.43 -7.15,12.65 -4.68,3.14 3.13,6.76 0.15,10.15 -1.8,-2.44 -11.73,-9.77 -7.39,-2.51 -2.07,2.52 -7.3,13.24 -10.91,5.79 -0.93,-3.37 -5.94,-3.15 -5.03,0.86 -1.74,-3.81 -3.52,-7.62 -5.74,-11.17 0.16,-2.74 0.54,-5.46 0.92,-8.17 11.8,-4.85 23.67,-9.59 35.63,-14.05 z"
       id="path62" />
  </g>
  <g
     id="#b6b7b2ff"
     transform="translate(-77.79346,-85.95)">
    <path
       fill="#b6b7b2"
       opacity="1"
       d="m 335.99,240.23 c -6.17,1.73 -0.68,-3.69 2.04,-4.66 4.68,6.6 8.82,13.61 12.15,21 -1.3,2.48 -2.66,7.55 -5.88,4.1 -3.62,-4.73 -11.85,6.21 -4.76,5.89 3.4,-5.09 9.69,-0.72 9.23,4.18 -3.13,2.31 -6.56,4.24 -8.84,7.53 -1.95,-2.28 -6.59,-8.68 -8.37,-3.21 3.14,6.17 -3.6,9.99 -8.42,12.11 -1.29,-1.62 3.56,-11.13 -1.54,-8.77 -3.05,7.22 -4.37,-6.16 -9.47,-4.53 1.5,4.69 3.21,9.34 3.8,14.27 l -0.85,-0.17 c -3.56,-6.74 -5.82,-14.08 -9.42,-20.8 -0.91,-4.01 4.1,-4.23 5.03,-0.86 3.61,7.45 8.84,-3.27 10.91,-5.79 -4.34,-7.26 5.59,0.07 7.39,2.51 2.98,-3.39 -4.83,-7.01 -0.15,-10.15 3.12,-3.22 13.09,-9.36 7.15,-12.65 z"
       id="path65" />
  </g>
  <g
     id="#1f1f1fff"
     transform="translate(-77.79346,-85.95)">
    <path
       fill="#1f1f1f"
       opacity="1"
       d="m 292.99,258.77 c -5.25,-7.08 4.79,-10.7 6.93,-2.77 2.22,3.55 4,7.36 5.74,11.17 3.6,6.72 5.86,14.06 9.42,20.8 1.44,7.57 -3.86,4.3 -5.8,-0.2 -5.64,-9.56 -9.99,-19.85 -16.29,-29 z"
       id="path68" />
  </g>
  <g
     id="#ddddd8ff"
     transform="translate(-77.79346,-85.95)">
    <path
       fill="#ddddd8"
       opacity="1"
       d="m 344.3,260.67 c 3.22,3.45 4.58,-1.62 5.88,-4.1 3.12,5.74 6.32,11.44 9.05,17.39 -2.97,9.24 -18,9.62 -26.41,13.89 -5.59,0.24 -15.05,11.52 -16.62,1.92 -0.07,-0.4 -0.2,-1.22 -0.27,-1.63 -0.59,-4.93 -2.3,-9.58 -3.8,-14.27 5.1,-1.63 6.42,11.75 9.47,4.53 5.1,-2.36 0.25,7.15 1.54,8.77 4.82,-2.12 11.56,-5.94 8.42,-12.11 1.78,-5.47 6.42,0.93 8.37,3.21 2.28,-3.29 5.71,-5.22 8.84,-7.53 0.46,-4.9 -5.83,-9.27 -9.23,-4.18 -7.09,0.32 1.14,-10.62 4.76,-5.89 z"
       id="path71" />
  </g>
  <g
     id="#aaaba2ff"
     transform="translate(-77.79346,-85.95)">
    <path
       fill="#aaaba2"
       opacity="1"
       d="m 289.71,258.64 c 1.09,0.01 2.19,0.04 3.28,0.13 6.3,9.15 10.65,19.44 16.29,29 1.56,2.48 -0.51,7.75 -3.02,3.91 -4.35,-11.59 -12.22,-21.39 -16.55,-33.04 z"
       id="path74" />
  </g>
  <g
     id="#7d7e79ff"
     transform="translate(-77.79346,-85.95)">
    <path
       fill="#7d7e79"
       opacity="1"
       d="m 184.49,263.6 c 6.53,1.75 13.75,-5.81 19.51,-0.63 18.49,12.12 49.44,15.62 53.11,41.94 1.88,3.31 5.56,7.85 9.82,6.14 12.17,-3.98 28.75,-1.44 36.38,-13.66 1.02,4.81 1.94,9.76 0.75,14.63 -3.51,-4.02 -6.69,-0.33 -9.29,2.96 -6.62,1.22 -10.12,7.78 -15,11.84 9.2,-4.04 20.4,9.73 8.15,13.17 -5.6,6.72 -28.57,1.29 -20.97,14.03 2.97,3.35 12.77,1.04 8.94,9.63 -10.74,3.14 1.92,13.93 -0.27,21.25 -0.94,4.89 -0.41,12.05 5.65,13.02 4.1,5.44 -5.26,10.2 -1.24,15.97 2.28,3.41 15.62,9.1 5.99,10.54 2.89,10.41 16.78,17.72 10.77,30.42 -0.35,5.49 -11.58,21.41 1.99,19.37 1.99,1.45 0.66,6.75 4.17,8.15 0.97,-5.47 -2.08,-11.61 0.83,-16.69 0.37,13.03 0.22,26.06 0.25,39.1 -5.74,4.07 -7.93,10.26 -8.69,-2.03 -1,-8.74 -7.43,-20.81 -17.75,-19.66 3.23,-6.29 -1.86,-10.79 -7.53,-13.12 -3.15,-7.92 -13.57,5.49 -16.95,1.23 2.47,-1.7 10.34,-6.82 -0.01,-5.13 -8.97,4.09 -19.42,1.85 -28.29,-1.56 -6.79,3.99 -17.98,-1.06 -21.85,-7.21 -4.68,1.52 -7.74,-2.69 -11.13,-5.04 -9.49,-4.14 -19.44,-4.23 -26.07,3.87 -6.18,-3.58 -12.28,-7.32 -18.78,-10.3 -3.31,-2.33 -6.78,-4.42 -10.1,-6.72 7.82,0.04 15.72,0.9 23.51,0.22 6.87,-8.62 18.65,-19.82 29.7,-12.11 -1.8,-5.93 -10.77,-6.11 -9.05,-13.22 8.74,6.83 19.01,11.38 27.47,18.57 19.17,6.12 40.84,-2.57 55.24,-15.81 7.18,-12.9 5.96,-29.44 1.37,-42.85 -4.64,-5.41 -1.32,3.29 -3.36,5.89 -3.37,4.44 2.43,10 -0.5,14.42 -3.77,5.6 -0.67,-5.22 -4.76,-6.57 5.12,-3.72 -0.78,-11.58 -3.51,-4.54 3.42,6.16 -1.18,15.85 -4.89,18.94 3.82,-11.97 -6.5,-28.35 3.01,-38.04 l 0.72,-0.13 c -0.69,11.07 14.45,-3.14 2.16,-0.88 12.13,-0.08 1.96,-13.11 1.73,-19.99 3.18,1.3 3.03,5.11 5.24,7.28 0.87,-6.89 -5.04,-14.12 -1.22,-20.53 7.08,-6.54 25.28,-5.45 25.22,-17.52 -9.87,-4.63 -19.99,8.85 -29.66,3.48 -5.14,-7.76 -6.96,-17.53 -13.52,-24.49 -8.8,-10.46 -22.72,-12.96 -34.9,-17.15 -10.89,-6.94 -25.93,-7.18 -36.58,0.32 0.89,-6.59 6.76,-14.08 14.19,-10.8 z"
       id="path77" />
  </g>
  <g
     id="#3f3f3aff"
     transform="translate(-77.79346,-85.95)">
    <path
       fill="#3f3f3a"
       opacity="1"
       d="m 170.3,274.4 c 10.65,-7.5 25.69,-7.26 36.58,-0.32 6.06,11.33 -9.46,-3.11 -13.88,-1.08 -10.42,2.67 -20.53,6.9 -31.26,8.46 2.89,-2.31 5.92,-4.46 8.56,-7.06 z"
       id="path80" />
  </g>
  <g
     id="#666761ff"
     transform="translate(-77.79346,-85.95)">
    <path
       fill="#666761"
       opacity="1"
       d="m 161.74,281.46 c 10.73,-1.56 20.84,-5.79 31.26,-8.46 4.42,-2.03 19.94,12.41 13.88,1.08 12.18,4.19 26.1,6.69 34.9,17.15 6.56,6.96 8.38,16.73 13.52,24.49 9.67,5.37 19.79,-8.11 29.66,-3.48 0.06,12.07 -18.14,10.98 -25.22,17.52 -3.82,6.41 2.09,13.64 1.22,20.53 -2.21,-2.17 -2.06,-5.98 -5.24,-7.28 -1.57,-3.16 -2.99,-6.38 -4.47,-9.57 -2.3,-14.37 -3.38,-31.83 -15.98,-41.75 -4.33,-3.72 -12.01,-9.59 -17.39,-4.41 -7.37,-0.49 -6.4,8.21 -2.05,11.59 7.77,8.3 14.01,17.87 20.01,27.5 1.59,3.42 3.02,6.96 5.13,10.11 -2.56,-7.7 8.37,-5.05 5.23,-11.69 1.06,1.54 1.96,3.19 2.63,4.94 0.12,4.48 5.51,12.94 -2.18,13.06 -0.25,6.63 4.36,13.99 4.46,21.22 -9.51,9.69 0.81,26.07 -3.01,38.04 3.71,-3.09 8.31,-12.78 4.89,-18.94 2.73,-7.04 8.63,0.82 3.51,4.54 4.09,1.35 0.99,12.17 4.76,6.57 2.93,-4.42 -2.87,-9.98 0.5,-14.42 2.04,-2.6 -1.28,-11.3 3.36,-5.89 4.59,13.41 5.81,29.95 -1.37,42.85 -14.4,13.24 -36.07,21.93 -55.24,15.81 -8.46,-7.19 -18.73,-11.74 -27.47,-18.57 -8.41,-6.2 -11.09,-18.57 -20.12,-23.35 10.42,-3.52 20.54,-8.37 31.16,-10.52 4.43,3.4 8.85,7.04 14.49,8.1 -2.7,3.25 0.28,3.73 3.29,2.84 4.68,-0.73 9.57,-1.44 14.05,0.51 8.2,-6.09 4.15,-18.83 11.77,-27.06 15.4,-13.87 1.09,-45.41 -19.59,-42.37 -3.98,2.28 -6.21,6.61 -9.11,10.05 -4.41,-4.51 -9.4,-9.26 -15.81,-10.5 -5.74,1.71 -19.1,-9.71 -20.21,0.15 7.86,5.47 -0.79,14.92 1.63,22.8 -7.99,2.96 -15.68,6.69 -23.61,9.8 -4.63,-24.31 -4.74,-54.09 12.76,-72.99 z"
       id="path83" />
  </g>
  <g
     id="#2c2c29ff"
     transform="translate(-77.79346,-85.95)">
    <path
       fill="#2c2c29"
       opacity="1"
       d="m 278.37,273.25 c 10.16,-1.86 15.1,10.47 17.02,18.51 -0.58,4.3 -1.65,11.4 -7.12,11.38 2.72,-5.25 -3.33,-7.77 -6.26,-3.26 -6.77,-6.23 -11.42,-19.88 -3.64,-26.63 z"
       id="path86" />
  </g>
  <g
     id="#82837eff"
     transform="translate(-77.79346,-85.95)">
    <path
       fill="#82837e"
       opacity="1"
       d="m 359.23,273.96 c 1.43,3.07 0.53,6.54 0.59,9.81 -1.75,25.42 -0.56,50.98 -0.61,76.46 -0.17,4.62 -0.13,9.24 -0.18,13.87 -2.24,1.39 -4.17,-5.25 -6.07,-0.13 8.67,9.4 4.33,23.61 4.7,35.47 -7.57,1.14 -2.88,8.59 -7.45,12.47 2.36,1.98 5.65,4.34 8.2,1.24 6.5,11.92 -16.17,3.99 -5.54,9.18 -0.84,9.12 -6.69,-1.72 -11.04,4.5 -3.73,3.22 -1.3,-9.96 -5.66,-5.76 0.51,3.85 4.79,7.96 0.87,11.31 -6.88,-2.97 -4.37,-14.8 -14.06,-9.18 3.62,13.47 -5.53,27.69 -1.66,41.47 4.85,4.48 -3.93,9.36 -0.46,14.5 2.95,4.01 -4.62,7.17 -0.48,11.37 3.12,4.86 2.06,23.17 -4.3,13.27 -2.27,-46.26 2.67,-92.64 -1.26,-138.63 3.45,-29.38 0.9,-56.51 1.38,-85.41 1.57,9.6 11.03,-1.68 16.62,-1.92 8.41,-4.27 23.44,-4.65 26.41,-13.89 z"
       id="path89" />
  </g>
  <g
     id="#424240ff"
     transform="translate(-77.79346,-85.95)">
    <path
       fill="#424240"
       opacity="1"
       d="m 359.21,360.23 c 0.05,-25.48 -1.14,-51.04 0.61,-76.46 0.05,0.85 0.15,2.57 0.2,3.43 -0.5,24.33 0.96,48.74 -0.81,73.03 z"
       id="path92" />
  </g>
  <g
     id="#3f3f3dff"
     transform="translate(-77.79346,-85.95)">
    <path
       fill="#3f3f3d"
       opacity="1"
       d="m 217.88,287.28 c 5.38,-5.18 13.06,0.69 17.39,4.41 12.6,9.92 13.68,27.38 15.98,41.75 -0.83,-1.23 -1.66,-2.45 -2.42,-3.71 -0.67,-1.75 -1.57,-3.4 -2.63,-4.94 3.14,6.64 -7.79,3.99 -5.23,11.69 -2.11,-3.15 -3.54,-6.69 -5.13,-10.11 3.59,-2.84 13.85,-3.58 8.62,-9.83 -7.15,-8.03 -12.17,-27.58 -25.84,-21.95 -1.96,0.53 -2.66,2.45 -2.79,4.28 -4.35,-3.38 -5.32,-12.08 2.05,-11.59 z"
       id="path95" />
  </g>
  <g
     id="#131313ff"
     transform="translate(-77.79346,-85.95)">
    <path
       fill="#131313"
       opacity="1"
       d="m 218.62,294.59 c 13.67,-5.63 18.69,13.92 25.84,21.95 5.23,6.25 -5.03,6.99 -8.62,9.83 -6,-9.63 -12.24,-19.2 -20.01,-27.5 0.13,-1.83 0.83,-3.75 2.79,-4.28 z"
       id="path98" />
  </g>
  <g
     id="#8f8f8aff"
     transform="translate(-77.79346,-85.95)">
    <path
       fill="#8f8f8a"
       opacity="1"
       d="m 294.77,314.98 c 2.6,-3.29 5.78,-6.98 9.29,-2.96 -0.49,51.18 0.41,102.45 -0.28,153.66 -2.91,5.08 0.14,11.22 -0.83,16.69 -3.51,-1.4 -2.18,-6.7 -4.17,-8.15 -13.57,2.04 -2.34,-13.88 -1.99,-19.37 6.01,-12.7 -7.88,-20.01 -10.77,-30.42 9.63,-1.44 -3.71,-7.13 -5.99,-10.54 -4.02,-5.77 5.34,-10.53 1.24,-15.97 -6.06,-0.97 -6.59,-8.13 -5.65,-13.02 2.19,-7.32 -10.47,-18.11 0.27,-21.25 3.83,-8.59 -5.97,-6.28 -8.94,-9.63 -7.6,-12.74 15.37,-7.31 20.97,-14.03 12.25,-3.44 1.05,-17.21 -8.15,-13.17 4.88,-4.06 8.38,-10.62 15,-11.84 z"
       id="path101" />
  </g>
  <g
     id="#49463eff"
     transform="translate(-77.79346,-85.95)">
    <path
       fill="#49463e"
       opacity="1"
       d="m 170.96,321.85 c 1.11,-9.86 14.47,1.56 20.21,-0.15 -10.69,0.33 -15.29,12.93 -14.17,22.07 3.22,0.2 7.59,-2.43 9.36,1.26 -6.25,6.8 -15.34,10.54 -24.32,12.04 2.88,-1.75 11.38,-3.75 7.79,-7.97 -7.17,0.85 -13.48,6.3 -20.85,5.35 7.93,-3.11 15.62,-6.84 23.61,-9.8 -2.42,-7.88 6.23,-17.33 -1.63,-22.8 z"
       id="path104" />
  </g>
  <g
     id="#0a0907ff"
     transform="translate(-77.79346,-85.95)">
    <path
       fill="#0a0907"
       opacity="1"
       d="m 177,343.77 c -1.12,-9.14 3.48,-21.74 14.17,-22.07 6.41,1.24 11.4,5.99 15.81,10.5 12.58,15.9 22.06,44.39 2.88,58.87 -3.01,0.89 -5.99,0.41 -3.29,-2.84 -5.64,-1.06 -10.06,-4.7 -14.49,-8.1 -2.91,-2.27 -7.09,0.19 -10.34,-0.28 7.42,-6.67 18.26,-9.99 22.3,-19.81 3.72,-2.2 0.88,-9.24 -4.09,-6.12 -15.89,2.77 -30.75,10.97 -46.98,12.11 0.27,-2.08 1.87,-3.62 2.93,-5.32 1.97,-1.34 3.98,-2.64 6.14,-3.64 8.98,-1.5 18.07,-5.24 24.32,-12.04 -1.77,-3.69 -6.14,-1.06 -9.36,-1.26 z"
       id="path107" />
  </g>
  <g
     id="#464641ff"
     transform="translate(-77.79346,-85.95)">
    <path
       fill="#464641"
       opacity="1"
       d="m 216.09,322.15 c 20.68,-3.04 34.99,28.5 19.59,42.37 -7.62,8.23 -3.57,20.97 -11.77,27.06 -4.48,-1.95 -9.37,-1.24 -14.05,-0.51 19.18,-14.48 9.7,-42.97 -2.88,-58.87 2.9,-3.44 5.13,-7.77 9.11,-10.05 z"
       id="path110" />
  </g>
  <g
     id="#b1b1aeff"
     transform="translate(-77.79346,-85.95)">
    <path
       fill="#b1b1ae"
       opacity="1"
       d="m 246.65,342.79 c 7.69,-0.12 2.3,-8.58 2.18,-13.06 0.76,1.26 1.59,2.48 2.42,3.71 1.48,3.19 2.9,6.41 4.47,9.57 0.23,6.88 10.4,19.91 -1.73,19.99 -0.54,0.22 -1.62,0.66 -2.16,0.88 l -0.72,0.13 c -0.1,-7.23 -4.71,-14.59 -4.46,-21.22 z"
       id="path113" />
  </g>
  <g
     id="#6c685dfc"
     transform="translate(-77.79346,-85.95)">
    <path
       fill="#6c685d"
       opacity="1"
       d="m 148.98,354.45 c 7.37,0.95 13.68,-4.5 20.85,-5.35 3.59,4.22 -4.91,6.22 -7.79,7.97 -2.16,1 -4.17,2.3 -6.14,3.64 -8.5,4.34 -16.87,9.17 -25.97,12.24 -3.45,4.75 3.37,2.99 6.11,3.08 -10.96,8.04 -26.43,8.69 -37.42,14.97 -0.84,-1.7 -1.67,-3.4 -2.56,-5.07 12.69,-6.11 25.86,-10.88 38.34,-17.48 5.16,-2.55 14.34,-3.67 14.65,-10.49 -21.33,4.98 -40.6,17.78 -62.15,22.12 7.99,-5.71 18.95,-6.35 27.26,-11.89 11.46,-4.9 23.02,-9.68 34.82,-13.74 z"
       id="path116" />
  </g>
  <g
     id="#33312aff"
     transform="translate(-77.79346,-85.95)">
    <path
       fill="#33312a"
       opacity="1"
       d="m 152.97,366.03 c 16.23,-1.14 31.09,-9.34 46.98,-12.11 4.97,-3.12 7.81,3.92 4.09,6.12 -4.04,9.82 -14.88,13.14 -22.3,19.81 3.25,0.47 7.43,-1.99 10.34,0.28 -10.62,2.15 -20.74,7 -31.16,10.52 -7.01,3.58 -15.59,5.45 -21.83,9.53 4.48,6.33 11.26,19.78 1.78,24.85 -10.1,-0.28 -12.63,-12.09 -14.2,-19.91 -3.55,-0.27 -6.65,1.87 -8.98,4.34 -6.02,0.29 -11.15,4.24 -17.04,5.41 3.9,-11.63 18.72,-10.41 27.29,-17.04 16.46,-6.22 32.04,-14.13 47.71,-22.14 2.15,-1.04 2.28,-3.56 2.66,-5.6 3.34,-1.43 6.7,-2.82 10.12,-4.06 4.71,-1.72 18.42,-4.53 11.55,-9.87 -21.47,5.73 -43.84,10.73 -63.94,19.87 -2.74,-0.09 -9.56,1.67 -6.11,-3.08 9.1,-3.07 17.47,-7.9 25.97,-12.24 -1.06,1.7 -2.66,3.24 -2.93,5.32 z"
       id="path119" />
  </g>
  <g
     id="#6c6b63ff"
     transform="translate(-77.79346,-85.95)">
    <path
       fill="#6c6b63"
       opacity="1"
       d="m 136.04,376.03 c 20.1,-9.14 42.47,-14.14 63.94,-19.87 6.87,5.34 -6.84,8.15 -11.55,9.87 -0.9,-1.29 -1.32,-3.66 -3.4,-2.98 -16.69,2.82 -32.25,10.54 -48.99,12.98 z"
       id="path122" />
  </g>
  <g
     id="#c8beabff"
     transform="translate(-77.79346,-85.95)">
    <path
       fill="#c8beab"
       opacity="1"
       d="m 86.9,380.08 c 21.55,-4.34 40.82,-17.14 62.15,-22.12 -0.31,6.82 -9.49,7.94 -14.65,10.49 -12.48,6.6 -25.65,11.37 -38.34,17.48 -0.52,-0.32 -1.56,-0.96 -2.08,-1.28 -3.93,1.42 -12.32,3.04 -7.08,-4.57 z"
       id="path125" />
  </g>
  <g
     id="#aaa89dff"
     transform="translate(-77.79346,-85.95)">
    <path
       fill="#aaa89d"
       opacity="1"
       d="m 136.04,376.03 c 16.74,-2.44 32.3,-10.16 48.99,-12.98 2.08,-0.68 2.5,1.69 3.4,2.98 -3.42,1.24 -6.78,2.63 -10.12,4.06 -3.34,1.25 -6.66,2.54 -10.01,3.75 -0.85,-4.23 -5.3,-2.33 -8.27,-1.68 -20.42,5.89 -40.85,13.11 -60.44,20.81 -0.24,-0.5 -0.73,-1.48 -0.97,-1.97 10.99,-6.28 26.46,-6.93 37.42,-14.97 z"
       id="path128" />
  </g>
  <g
     id="#71716eff"
     transform="translate(-77.79346,-85.95)">
    <path
       fill="#71716e"
       opacity="1"
       d="m 251.83,363.88 c 0.54,-0.22 1.62,-0.66 2.16,-0.88 12.29,-2.26 -2.85,11.95 -2.16,0.88 z"
       id="path131" />
  </g>
  <g
     id="#787468fd"
     transform="translate(-77.79346,-85.95)">
    <path
       fill="#787468"
       opacity="1"
       d="m 168.3,373.84 c 3.35,-1.21 6.67,-2.5 10.01,-3.75 -0.38,2.04 -0.51,4.56 -2.66,5.6 -15.67,8.01 -31.25,15.92 -47.71,22.14 -8.57,6.63 -23.39,5.41 -27.29,17.04 -3.32,1.67 -7.04,2.11 -10.64,1.08 -1.41,-0.95 -2.78,-1.95 -4.13,-2.97 -1.99,-3.76 -3.92,-7.54 -5.63,-11.43 -2.06,-6.92 -2.81,-21.34 6.65,-21.47 -5.24,7.61 3.15,5.99 7.08,4.57 -6.93,3.88 2.12,8.19 2.01,13.37 0.75,5.39 7.38,2.94 5.01,-2.03 0.85,1.69 0.98,4.93 3.64,3.63 21.3,-8.37 42.3,-17.56 63.66,-25.78 z"
       id="path134" />
  </g>
  <g
     id="#eeede4ff"
     transform="translate(-77.79346,-85.95)">
    <path
       fill="#eeede4"
       opacity="1"
       d="m 160.03,372.16 c 2.97,-0.65 7.42,-2.55 8.27,1.68 -21.36,8.22 -42.36,17.41 -63.66,25.78 -2.66,1.3 -2.79,-1.94 -3.64,-3.63 -0.45,-1.03 -0.92,-2.03 -1.41,-3.02 19.59,-7.7 40.02,-14.92 60.44,-20.81 z"
       id="path137" />
  </g>
  <g
     id="#6b6c68ff"
     transform="translate(-77.79346,-85.95)">
    <path
       fill="#6b6c68"
       opacity="1"
       d="m 352.96,373.97 c 1.9,-5.12 3.83,1.52 6.07,0.13 0.83,42.39 -1.65,84.72 -0.82,127.09 -0.28,0.46 -0.84,1.38 -1.11,1.84 -7.18,4.47 -15.45,6.64 -23.15,9.91 -4.25,2.77 -20.17,11.7 -17.87,0.87 6.36,9.9 7.42,-8.41 4.3,-13.27 -4.14,-4.2 3.43,-7.36 0.48,-11.37 -3.47,-5.14 5.31,-10.02 0.46,-14.5 -3.87,-13.78 5.28,-28 1.66,-41.47 9.69,-5.62 7.18,6.21 14.06,9.18 3.92,-3.35 -0.36,-7.46 -0.87,-11.31 4.36,-4.2 1.93,8.98 5.66,5.76 4.35,-6.22 10.2,4.62 11.04,-4.5 -10.63,-5.19 12.04,2.74 5.54,-9.18 -2.55,3.1 -5.84,0.74 -8.2,-1.24 4.57,-3.88 -0.12,-11.33 7.45,-12.47 -0.37,-11.86 3.97,-26.07 -4.7,-35.47 z"
       id="path140" />
  </g>
  <g
     id="#23221eff"
     transform="translate(-77.79346,-85.95)">
    <path
       fill="#23221e"
       opacity="1"
       d="m 95.99,398.02 c 0.11,-5.18 -8.94,-9.49 -2.01,-13.37 0.52,0.32 1.56,0.96 2.08,1.28 0.89,1.67 1.72,3.37 2.56,5.07 0.24,0.49 0.73,1.47 0.97,1.97 0.49,0.99 0.96,1.99 1.41,3.02 2.37,4.97 -4.26,7.42 -5.01,2.03 z"
       id="path143" />
  </g>
  <g
     id="#8f8f8bff"
     transform="translate(-77.79346,-85.95)">
    <path
       fill="#8f8f8b"
       opacity="1"
       d="m 139.09,400.18 c 6.24,-4.08 14.82,-5.95 21.83,-9.53 9.03,4.78 11.71,17.15 20.12,23.35 -1.72,7.11 7.25,7.29 9.05,13.22 -11.05,-7.71 -22.83,3.49 -29.7,12.11 -7.79,0.68 -15.69,-0.18 -23.51,-0.22 -1,-0.68 -1.97,-1.4 -2.92,-2.12 -1.96,-3.01 -3.97,-5.99 -5.95,-8.98 -3.62,-6.09 -7.31,-12.14 -10.32,-18.55 2.33,-2.47 5.43,-4.61 8.98,-4.34 1.57,7.82 4.1,19.63 14.2,19.91 9.48,-5.07 2.7,-18.52 -1.78,-24.85 z"
       id="path146" />
  </g>
  <g
     id="#020202aa"
     transform="translate(-77.79346,-85.95)">
    <path
       fill="#020202"
       opacity="0.67"
       d="m 100.65,414.87 c 5.89,-1.17 11.02,-5.12 17.04,-5.41 3.01,6.41 6.7,12.46 10.32,18.55 -13.96,-0.39 -29.65,2.22 -38,-12.06 3.6,1.03 7.32,0.59 10.64,-1.08 z"
       id="path149" />
  </g>
  <g
     id="#010101ca"
     transform="translate(-77.79346,-85.95)">
    <path
       fill="#010101"
       opacity="0.79"
       d="m 480.04,454.24 c 18.51,-10.14 40.5,-14.94 54.99,-31.36 1.94,13.2 -10.86,20.72 -21.01,25.16 -51.93,23.49 -104.01,46.67 -156.02,70.01 -20.25,7.35 -39.9,24.61 -62.21,15.2 1.32,-0.05 2.63,-0.16 3.94,-0.3 18.56,-4.93 35.81,-14.49 52.95,-23.05 43.09,-16.85 84.45,-38.3 127.36,-55.66 z"
       id="path152" />
  </g>
  <g
     id="#71726eff"
     transform="translate(-77.79346,-85.95)">
    <path
       fill="#71726e"
       opacity="1"
       d="m 165.76,456.13 c 6.63,-8.1 16.58,-8.01 26.07,-3.87 3.39,2.35 6.45,6.56 11.13,5.04 3.87,6.15 15.06,11.2 21.85,7.21 8.87,3.41 19.32,5.65 28.29,1.56 10.35,-1.69 2.48,3.43 0.01,5.13 3.38,4.26 13.8,-9.15 16.95,-1.23 5.67,2.33 10.76,6.83 7.53,13.12 -5.39,10.3 -1.99,26.1 10.46,29.06 5.11,2.12 7.47,-5.5 7.29,-9.4 0.76,12.29 2.95,6.1 8.69,2.03 1.19,6.54 -4.32,10.8 -8.98,14.16 -11.61,5.51 -22.39,-3.5 -32.07,-8.91 -9.39,-4.06 -17.6,-10.4 -27.15,-14.06 -23.35,-13.3 -46.81,-26.38 -70.07,-39.84 z"
       id="path155" />
  </g>
  <g
     id="#171716fd"
     transform="translate(-77.79346,-85.95)">
    <path
       fill="#171716"
       opacity="1"
       d="m 468.69,452.72 c 2.96,-2.46 6.49,-1.69 9.37,0.45 0.49,0.27 1.48,0.81 1.98,1.07 -42.91,17.36 -84.27,38.81 -127.36,55.66 0.78,-2.71 3.02,-4.52 4.42,-6.87 0.27,-0.46 0.83,-1.38 1.11,-1.84 8.43,-1.54 16.16,-5.56 23.95,-8.97 28.71,-13.45 58.63,-24.34 86.53,-39.5 z"
       id="path158" />
  </g>
  <g
     id="#242421ff"
     transform="translate(-77.79346,-85.95)">
    <path
       fill="#242421"
       opacity="1"
       d="m 277.59,483.09 c 10.32,-1.15 16.75,10.92 17.75,19.66 0.18,3.9 -2.18,11.52 -7.29,9.4 -12.45,-2.96 -15.85,-18.76 -10.46,-29.06 z"
       id="path161" />
  </g>
  <g
     id="#32332ffb"
     transform="translate(-77.79346,-85.95)">
    <path
       fill="#32332f"
       opacity="1"
       d="m 235.83,495.97 c 9.55,3.66 17.76,10 27.15,14.06 9.68,5.41 20.46,14.42 32.07,8.91 4.54,3.75 9.91,2.06 15.13,1.08 -0.03,6.4 -7.36,8.21 -10.45,12.93 -1.31,0.14 -2.62,0.25 -3.94,0.3 -18.84,-13.73 -40.38,-24.43 -59.96,-37.28 z"
       id="path164" />
  </g>
</svg>
